<svg xmlns="http://www.w3.org/2000/svg" width="64" height="px" viewBox="0 0 63 24"><path d="M62.777 3.074C62.777 1.375 61.418 0 59.738 0S56.7 1.375 56.7 3.074c0 1.7 1.36 3.074 3.04 3.074s3.038-1.375 3.038-3.074M32.98 0c-1.332 0-2.37 1.05-2.37 2.398V7.2c-1.258-.676-2.594-1.05-4.075-1.05-4.894 0-8.82 3.976-8.82 8.925S21.64 24 26.535 24c4.89 0 8.82-3.977 8.82-8.926V2.398C35.281 1.125 34.242 0 32.98 0m-6.445 19.2c-2.297 0-4.078-1.876-4.078-4.126s1.855-4.125 4.078-4.125c2.297 0 4.074 1.875 4.074 4.125S28.758 19.2 26.535 19.2M54.55 2.398C54.55 1.051 53.513 0 52.18 0c-1.336 0-2.371 1.05-2.371 2.398V7.2c-1.262-.676-2.594-1.05-4.079-1.05-4.89 0-8.82 3.976-8.82 8.925S40.84 24 45.73 24s8.82-3.977 8.82-8.926ZM45.73 19.2c-2.296 0-4.078-1.875-4.078-4.125s1.856-4.125 4.078-4.125 4.079 1.875 4.079 4.125S47.953 19.2 45.73 19.2M59.738 24c-1.332 0-2.37-1.05-2.37-2.398V10.199c0-1.347 1.038-2.398 2.37-2.398 1.336 0 2.371 1.05 2.371 2.398v11.403c0 1.273-1.035 2.398-2.37 2.398M8.152 2.102c-4.37 0-7.93 3.597-7.93 8.023v11.477C.223 22.949 1.263 24 2.595 24c1.336 0 2.37-1.05 2.37-2.398v-4.204h6.45v4.204c0 1.347 1.04 2.398 2.371 2.398 1.336 0 2.371-1.05 2.371-2.398V10.125c-.074-4.426-3.629-8.023-8.004-8.023M4.891 12.676v-2.551c0-1.8 1.484-3.3 3.261-3.3 1.782 0 3.262 1.5 3.262 3.3v2.55Zm0 0" style="stroke:none;fill-rule:nonzero;fill:#4e7eff;fill-opacity:1"/></svg>