<svg xmlns="http://www.w3.org/2000/svg" width="50" height="50"><path d="M7 4C5.355 4 4 5.355 4 7v36c0 1.645 1.355 3 3 3h36c1.645 0 3-1.355 3-3V7c0-1.645-1.355-3-3-3zm0 2h36c.555 0 1 .445 1 1v36c0 .555-.445 1-1 1H7c-.555 0-1-.445-1-1V7c0-.555.445-1 1-1m15.5 7c-5.235 0-9.5 4.265-9.5 9.5s4.265 9.5 9.5 9.5a9.45 9.45 0 0 0 5.965-2.121l7.828 7.828 1.414-1.414-7.828-7.828A9.45 9.45 0 0 0 32 22.5c0-5.235-4.265-9.5-9.5-9.5m0 2c4.154 0 7.5 3.346 7.5 7.5S26.654 30 22.5 30a7.485 7.485 0 0 1-7.5-7.5c0-4.154 3.346-7.5 7.5-7.5"/></svg>